# Blender 4.5.0
# www.blender.org
mtllib Playpark1.mtl
o Cube.001
v 10.521535 -0.101463 -14.949236
v 10.521535 0.101463 -14.949236
v 10.755865 3.355019 -34.869865
v 10.755865 3.152092 -34.869865
v 8.521535 -0.101463 -14.949236
v 8.521535 0.101463 -14.949236
v 8.521535 -0.101463 14.949236
v 8.521535 0.101463 14.949236
v 1.000000 -0.101463 -14.949235
v 1.000000 0.101463 -14.949235
v 1.000000 -0.101463 14.949235
v 1.000000 0.101463 14.949235
v -1.000000 -0.101463 -14.949235
v -1.000000 0.101463 -14.949235
v -1.445647 3.355019 -34.869865
v -1.000000 0.101463 14.949235
v -1.445647 -0.101463 -28.672186
v -1.445647 0.101463 -28.672186
v 10.755865 -0.101463 -28.672186
v 10.755865 0.101463 -28.672186
v -1.445645 -0.101463 -14.938280
v -1.445645 0.101463 -14.938280
v 10.755867 -0.101463 -14.938280
v 10.755867 0.101463 -14.938280
v 8.521535 0.101463 20.067955
v 8.521535 -0.101463 20.067955
v 10.521535 -0.101463 14.949236
v 10.521535 0.101463 14.949236
v -1.445647 3.152092 -34.869865
v -1.000000 -0.101463 14.949235
v 1.000000 -0.101463 20.067955
v 1.000000 0.101463 20.067955
v 4.760767 -0.101463 20.067963
v 4.760767 -0.101463 14.949243
v 4.760767 0.101463 14.949244
v 4.760767 0.101463 20.067963
v 5.837161 -0.101463 20.067961
v 6.409593 -0.101463 14.949242
v 6.409593 0.101463 14.949242
v 5.837160 0.101463 20.067961
v 6.409575 -0.101416 4.217096
v 4.760750 -0.101416 4.217098
v 6.409575 0.101510 4.217096
v 4.760750 0.101510 4.217100
v 10.172427 -0.101389 -1.921849
v 8.523602 -0.101389 -1.921847
v 10.172427 0.101537 -1.921849
v 8.523602 0.101537 -1.921845
v 10.755865 3.355019 -34.869865
v -1.445647 3.355019 -34.869865
v -1.445647 3.152092 -34.869865
v 10.755865 3.152092 -34.869865
v 10.755865 3.355019 -37.433727
v -1.445647 3.355019 -37.433727
v -1.445647 3.152092 -37.433727
v 10.755865 3.152092 -37.433727
vn -0.0000 1.0000 -0.0000
vn 1.0000 -0.0000 -0.0000
vn -0.0000 -1.0000 -0.0000
vn -1.0000 -0.0000 -0.0000
vn -0.0000 -0.0000 1.0000
vn -0.0000 -0.0000 -1.0000
vn -0.0000 -0.8854 -0.4648
vn -0.0000 0.8854 0.4648
vn 0.8526 -0.0000 0.5226
vn -0.8526 -0.0000 -0.5226
vt 0.625000 0.500000
vt 0.875000 0.500000
vt 0.875000 0.750000
vt 0.625000 0.750000
vt 0.625000 0.000000
vt 0.375000 0.000000
vt 0.625000 0.250000
vt 0.375000 0.250000
vt 0.125000 0.500000
vt 0.375000 0.500000
vt 0.375000 0.750000
vt 0.125000 0.750000
vt 0.625000 1.000000
vt 0.375000 1.000000
vt 0.375000 0.375000
vt 0.625000 0.375000
vt 0.750000 0.750000
vt 0.250000 0.750000
vt 0.785777 0.750000
vt 0.714223 0.750000
vt 0.625000 0.482331
vt 0.375000 0.482331
vt 0.285777 0.750000
vt 0.214223 0.750000
vt 0.375000 0.267669
vt 0.625000 0.267669
s 0
usemtl Material.001
f 1/1/1 5/2/1 7/3/1 27/4/1
f 7/5/2 8/6/2 25/6/2 26/5/2
f 8/6/2 7/5/2 5/7/2 6/8/2
f 6/9/3 2/10/3 28/11/3 8/12/3
f 2/10/4 1/1/4 27/4/4 28/11/4
f 6/8/5 5/7/5 1/1/5 2/10/5
f 30/5/6 16/6/6 35/15/6 34/16/6
f 31/4/3 30/3/3 34/17/3 33/17/3
f 8/12/3 28/11/3 25/12/3
f 27/4/1 7/3/1 26/3/1
f 16/12/1 32/11/1 36/18/1 35/18/1
f 37/19/3 38/20/3 27/4/3 26/3/3
f 38/21/6 39/22/6 28/11/6 27/4/6
f 39/23/1 40/24/1 25/12/1 28/11/1
f 40/25/5 37/26/5 26/5/5 25/6/5
f 32/11/5 31/4/5 33/16/5 37/26/5 40/25/5 36/15/5
f 35/18/1 36/18/1 40/24/1 39/23/1
f 35/18/1 39/23/1 43/23/1 44/18/1
f 33/17/3 34/17/3 38/20/3 37/19/3
f 43/22/9 41/21/9 45/21/9 47/22/9
f 39/22/2 38/21/2 41/21/2 43/22/2
f 34/16/4 35/15/4 44/15/4 42/16/4
f 38/20/3 34/17/3 42/17/3 41/20/3
f 46/16/6 48/15/6 47/22/6 45/21/6
f 44/18/1 43/23/1 47/23/1 48/18/1
f 42/16/10 44/15/10 48/15/10 46/16/10
f 41/20/3 42/17/3 46/17/3 45/20/3
usemtl Material
f 9/1/1 13/2/1 30/3/1 11/4/1
f 12/11/4 11/4/4 31/4/4 32/11/4
f 16/6/2 30/5/2 13/7/2 14/8/2
f 14/9/3 10/10/3 12/11/3 16/12/3
f 10/10/4 9/1/4 11/4/4 12/11/4
f 14/8/5 13/7/5 9/1/5 10/10/5
f 16/12/3 12/11/3 32/11/3
f 11/4/1 30/3/1 31/4/1
usemtl Material.002
f 17/1/1 21/2/1 23/3/1 19/4/1
f 20/11/4 19/4/4 23/13/4 24/14/4
f 24/6/6 23/5/6 21/7/6 22/8/6
f 22/9/3 18/10/3 20/11/3 24/12/3
f 20/11/7 18/10/7 15/10/7 3/11/7
f 22/8/2 21/7/2 17/1/2 18/10/2
f 17/1/8 19/4/8 4/4/8 29/1/8
f 19/4/4 20/11/4 3/11/4 4/4/4
f 18/10/2 17/1/2 29/1/2 15/10/2
f 29/1/1 4/4/1 52/4/1 51/1/1
f 15/10/1 29/1/1 51/1/1 50/10/1
f 3/11/1 15/10/1 50/10/1 49/11/1
f 4/4/1 3/11/1 49/11/1 52/4/1
f 52/4/4 49/11/4 53/11/4 56/4/4
f 54/10/5 55/1/5 56/4/5 53/11/5
f 49/11/3 50/10/3 54/10/3 53/11/3
f 50/10/2 51/1/2 55/1/2 54/10/2
f 51/1/1 52/4/1 56/4/1 55/1/1
